<?xml version="1.0" encoding="UTF-8"?> <svg xmlns="http://www.w3.org/2000/svg" width="40" height="40" viewBox="0 0 40 40" fill="none"><circle cx="20" cy="20" r="20" fill="#2C4143"></circle><path d="M13.8021 29.5508L23.0569 31.4737C23.2133 31.5062 23.3629 31.3949 23.3768 31.2358L23.6446 28.162C23.6552 28.0398 23.7478 27.9406 23.869 27.9216L25.546 27.6594C26.1125 27.5709 26.559 27.13 26.6547 26.5647L27.379 22.2866C27.3987 22.1705 27.4922 22.081 27.609 22.0665L29.3419 21.8508C29.5259 21.8279 29.6307 21.6288 29.5431 21.4655C28.6346 19.7714 27.6718 18.4674 27.4514 17.8688C27.4188 17.7802 27.4137 17.6821 27.4153 17.5877C27.5771 8.03338 19.021 7.23329 14.8023 9.66915C11.0469 11.8375 9.64701 16.7885 11.0076 20.1049C12.6611 24.1352 12.8058 26.4537 12.7373 28.1595C12.7107 28.8233 13.1516 29.4157 13.8021 29.5508Z" stroke="#EFECD6" stroke-width="0.8"></path><path d="M16.2231 16.078L16.5289 16.336L16.5308 16.3336L16.2231 16.078ZM22.4389 16.8008L22.7411 17.0629L22.4389 16.8008ZM19.4263 15.5422L19.0367 15.4513L19.4263 15.5422ZM20.0835 12.7248L20.473 12.8156L20.0835 12.7248ZM18.4538 21.5626L18.1461 21.3071L18.4538 21.5626ZM21.5872 17.7906L21.2795 17.535L21.5872 17.7906ZM21.5848 17.7853L21.8869 18.0475L21.5848 17.7853ZM21.5872 17.7906L21.2795 17.535L18.1461 21.3071L18.4538 21.5626L18.7615 21.8182L21.8949 18.0461L21.5872 17.7906ZM17.6928 21.1845L18.0823 21.2753L18.7445 18.4361L18.355 18.3453L17.9655 18.2544L17.3032 21.0936L17.6928 21.1845ZM17.9298 17.8094V17.4094H15.7019V17.8094V18.2094H17.9298V17.8094ZM15.3682 17.0912L15.6739 17.3492L16.5289 16.336L16.2231 16.078L15.9174 15.8201L15.0625 16.8333L15.3682 17.0912ZM16.2231 16.078L16.5308 16.3336L19.6301 12.6022L19.3224 12.3466L19.0147 12.091L15.9154 15.8224L16.2231 16.078ZM20.0835 12.7248L19.694 12.6339L19.0367 15.4513L19.4263 15.5422L19.8158 15.6331L20.473 12.8156L20.0835 12.7248ZM19.8515 16.078V16.478H22.1091V16.078V15.678H19.8515V16.078ZM22.4389 16.8008L22.1368 16.5386L21.2826 17.5232L21.5848 17.7853L21.8869 18.0475L22.7411 17.0629L22.4389 16.8008ZM22.1091 16.078V16.478C22.1218 16.478 22.1267 16.481 22.1291 16.4827C22.1331 16.4854 22.1385 16.4908 22.1424 16.4994C22.1464 16.5081 22.147 16.5157 22.1464 16.5204C22.146 16.5233 22.1451 16.5291 22.1368 16.5386L22.4389 16.8008L22.7411 17.0629C23.211 16.5212 22.8262 15.678 22.1091 15.678V16.078ZM19.4263 15.5422L19.0367 15.4513C18.9143 15.9761 19.3126 16.478 19.8515 16.478V16.078V15.678C19.8279 15.678 19.8104 15.656 19.8158 15.6331L19.4263 15.5422ZM19.3224 12.3466L19.6301 12.6022C19.6378 12.5929 19.643 12.5896 19.6446 12.5887C19.6462 12.5878 19.6473 12.5874 19.6487 12.5872C19.6521 12.5866 19.6619 12.5865 19.6746 12.5928C19.6873 12.5991 19.6931 12.6069 19.6947 12.6101C19.6953 12.6112 19.6957 12.6124 19.6959 12.6143C19.6962 12.616 19.6967 12.6221 19.694 12.6339L20.0835 12.7248L20.473 12.8156C20.6736 11.956 19.5787 11.412 19.0147 12.091L19.3224 12.3466ZM15.7019 17.8094V17.4094C15.6894 17.4094 15.6845 17.4065 15.682 17.4048C15.678 17.4021 15.6726 17.3967 15.6687 17.3883C15.6647 17.3798 15.6641 17.3722 15.6646 17.3674C15.6649 17.3644 15.6659 17.3587 15.6739 17.3492L15.3682 17.0912L15.0625 16.8333C14.6035 17.3773 14.9902 18.2094 15.7019 18.2094V17.8094ZM18.355 18.3453L18.7445 18.4361C18.8669 17.9114 18.4686 17.4094 17.9298 17.4094V17.8094V18.2094C17.9534 18.2094 17.9708 18.2314 17.9655 18.2544L18.355 18.3453ZM18.4538 21.5626L18.1461 21.3071C18.1384 21.3163 18.1332 21.3196 18.1317 21.3205C18.13 21.3214 18.1289 21.3218 18.1276 21.322C18.1241 21.3226 18.1143 21.3228 18.1017 21.3165C18.089 21.3102 18.0832 21.3023 18.0816 21.2992C18.0809 21.298 18.0805 21.2969 18.0803 21.295C18.0801 21.2932 18.0796 21.2871 18.0823 21.2753L17.6928 21.1845L17.3032 21.0936C17.1027 21.9532 18.1975 22.4972 18.7615 21.8182L18.4538 21.5626ZM21.586 17.788V18.188C21.2485 18.188 21.0639 17.7946 21.2795 17.535L21.5872 17.7906L21.8949 18.0461C22.1123 17.7845 21.9262 17.388 21.586 17.388V17.788ZM21.586 17.788V17.388C21.9275 17.388 22.1107 17.7895 21.8869 18.0475L21.5848 17.7853L21.2826 17.5232C21.0571 17.7833 21.2418 18.188 21.586 18.188V17.788Z" fill="#EFECD6"></path></svg> 