<?xml version="1.0" encoding="UTF-8"?> <svg xmlns="http://www.w3.org/2000/svg" width="40" height="40" viewBox="0 0 40 40" fill="none"><circle cx="20" cy="20" r="20" fill="#2C4143"></circle><path fill-rule="evenodd" clip-rule="evenodd" d="M19.9075 11.8126C19.9186 12.1194 19.9769 12.3002 20.0702 12.409C20.2064 12.5679 20.343 12.6239 20.5036 12.6377C20.6924 12.654 20.9327 12.612 21.25 12.5148C21.4046 12.4675 21.5646 12.4113 21.7368 12.3501C21.7544 12.3438 21.772 12.3375 21.7898 12.3312C21.9432 12.2766 22.1061 12.2186 22.2689 12.1659C22.6275 12.0497 23.0376 11.941 23.4536 11.941C26.1247 11.941 27.7088 13.9888 28.7522 15.8167C30.0337 18.0617 29.9795 20.8639 28.615 23.0608C27.7172 24.5061 26.5697 25.7577 24.8303 26.4221C22.3072 27.3857 19.5226 27.0131 17.2282 25.9002C16.7169 25.6523 16.1169 26.0337 16.1169 26.5187V29.9414H15.0046V26.5187C15.0046 25.1252 16.5625 24.3592 17.7207 24.9209C19.8015 25.93 22.2572 26.2329 24.4271 25.4041C25.8547 24.8588 26.8376 23.8246 27.6653 22.492C28.8209 20.6317 28.8666 18.251 27.782 16.3509C26.7518 14.5462 25.4515 13.0333 23.4536 13.0333C23.2201 13.0333 22.9473 13.0963 22.6172 13.2031C22.471 13.2506 22.3238 13.303 22.1682 13.3584C22.1508 13.3645 22.1333 13.3708 22.1156 13.3771C21.9441 13.4381 21.7625 13.502 21.5811 13.5576C21.2264 13.6662 20.8169 13.7613 20.4062 13.7258C19.9673 13.688 19.5545 13.5034 19.2194 13.1126C18.8831 12.7204 18.8098 12.2356 18.7959 11.8513C18.7887 11.6535 18.797 11.4574 18.8055 11.286C18.8069 11.2598 18.8082 11.2343 18.8094 11.2095C18.8168 11.064 18.8231 10.9417 18.8225 10.8288L19.9348 10.8237C19.9355 10.9692 19.9275 11.1259 19.9201 11.2692C19.9188 11.293 19.9177 11.3164 19.9165 11.3393C19.9081 11.5089 19.9022 11.6648 19.9075 11.8126ZM15.1381 11.1022C15.1384 11.0097 15.1386 10.9177 15.1386 10.8263H16.2509C16.2509 10.8947 16.2509 10.9625 16.2508 11.03C16.2494 12.5197 16.2481 13.7758 16.9554 14.9463C17.447 15.7599 18.1744 16.33 19.0018 16.9784C19.1227 17.0732 19.2457 17.1696 19.3704 17.2687C20.3728 18.065 20.5884 19.1458 20.2462 20.0924C19.9173 21.002 19.0895 21.7552 18.0703 22.0415C17.5226 22.1954 17.003 22.3094 16.5322 22.4128C16.4217 22.437 16.3138 22.4607 16.209 22.4841C15.6464 22.6099 15.1689 22.7295 14.7443 22.902C13.9441 23.2273 13.2897 23.7551 12.7654 25.0173C12.5481 25.5404 12.4365 26.0983 12.4365 26.6612V29.9414H11.3242V26.6612C11.3242 25.9563 11.464 25.2584 11.7355 24.6048C12.3669 23.0848 13.2317 22.3347 14.3189 21.8928C14.838 21.6818 15.3963 21.5455 15.9621 21.419C16.0748 21.3938 16.188 21.369 16.3019 21.3439C16.7705 21.2411 17.2512 21.1356 17.7643 20.9914C18.4579 20.7965 18.9961 20.2852 19.198 19.7269C19.3864 19.2057 19.2972 18.6156 18.6709 18.1179C18.5568 18.0273 18.4396 17.9359 18.3206 17.843C17.5047 17.2065 16.6024 16.5027 15.9988 15.5037C15.1304 14.0664 15.1344 12.5245 15.1381 11.1022Z" fill="#EFECD6"></path></svg> 