<?xml version="1.0" encoding="UTF-8"?> <svg xmlns="http://www.w3.org/2000/svg" width="24" height="24" viewBox="0 0 24 24" fill="none"><path d="M12.9998 2.45068C7.20097 2.45068 2.5 7.15165 2.5 12.9505C2.5 17.8745 5.89017 22.0063 10.4635 23.1412V16.1592H8.2984V12.9505H10.4635V11.5679C10.4635 7.99415 12.0808 6.33771 15.5895 6.33771C16.2547 6.33771 17.4026 6.46832 17.8721 6.59852V9.50696C17.6243 9.48092 17.1938 9.4679 16.6592 9.4679C14.9376 9.4679 14.2724 10.1202 14.2724 11.8157V12.9505H17.702L17.1128 16.1592H14.2724V23.3734C19.4714 22.7455 23.5 18.3188 23.5 12.9505C23.4996 7.15165 18.7986 2.45068 12.9998 2.45068Z" fill="#EFECD6"></path></svg> 