<?xml version="1.0" encoding="UTF-8"?> <svg xmlns="http://www.w3.org/2000/svg" width="160" height="28" viewBox="0 0 160 28" fill="none"><path d="M65.4015 2.31318C68.1023 2.31318 70.1887 3.57221 71.2495 5.70323L71.4879 2.80119H74.3615V19.1915C74.3615 24.5734 71.1135 27.9986 65.9839 27.9986C61.4367 27.9986 58.3247 25.378 57.7103 21.0441H60.9231C61.3327 23.5606 63.1791 25.0277 65.9839 25.0277C69.1311 25.0277 71.1807 22.9304 71.1807 19.6795V16.2543C70.0863 18.2476 67.8991 19.4332 65.2655 19.4332C60.5135 19.4332 57.5039 15.6928 57.5039 10.9061C57.5039 6.11934 60.5471 2.30859 65.4031 2.30859L65.4015 2.31318ZM65.8127 16.571C69.0607 16.571 71.0431 14.1952 71.0431 10.8403C71.0431 7.48545 69.1295 5.17698 65.8463 5.17698C62.5631 5.17698 60.7167 7.6935 60.7167 10.8403C60.7167 13.9871 62.6655 16.571 65.8127 16.571Z" fill="#EFECD6"></path><path d="M86.0454 6.07213H84.615C81.583 6.07213 79.7094 7.95378 79.7094 11.226V20.2473H76.5078V3.25117H79.5062L79.7094 5.82889C80.3894 4.05279 82.0614 2.86719 84.3446 2.86719C84.9238 2.86719 85.4006 2.93756 86.047 3.07677V6.07213H86.0438H86.0454Z" fill="#EFECD6"></path><path d="M46.6596 2.3125C51.6564 2.3125 55.3556 6.02227 55.3556 11.3047C55.3556 16.5871 51.6596 20.2984 46.6596 20.2984C41.6596 20.2984 37.9316 16.5886 37.9316 11.3047C37.9316 6.02074 41.6276 2.3125 46.6596 2.3125ZM46.6596 17.3566C49.8772 17.3566 52.1364 14.8722 52.1364 11.3032C52.1364 7.73412 49.8772 5.24972 46.6596 5.24972C43.442 5.24972 41.1828 7.73412 41.1828 11.3032C41.1828 14.8722 43.4068 17.3566 46.6596 17.3566Z" fill="#EFECD6"></path><path d="M145.657 14.8844C145.657 16.6253 147.042 17.6702 149.3 17.6702C151.703 17.6702 153.089 16.7294 153.089 15.1629C153.089 14.0124 152.506 13.3164 150.649 12.8651L147.516 12.169C144.348 11.4378 142.854 9.94163 142.854 7.43122C142.854 4.29819 145.622 2.3125 149.556 2.3125C153.49 2.3125 156.004 4.40221 156.076 7.64081H152.799C152.726 5.93508 151.524 4.85503 149.449 4.85503C147.374 4.85503 146.098 5.76068 146.098 7.3272C146.098 8.47761 146.972 9.24251 148.721 9.66015L151.854 10.3914C154.878 11.0875 156.37 12.4123 156.37 14.9548C156.37 18.1934 153.457 20.2479 149.231 20.2479C145.006 20.2479 142.385 18.123 142.385 14.8844H145.662H145.657Z" fill="#EFECD6"></path><path d="M32.5793 14.5606C31.9969 16.5111 30.2497 17.556 27.5905 17.556C24.2033 17.556 22.2369 15.5703 21.9809 11.9829L35.7489 11.9477V10.7284C35.7473 5.67856 32.4337 2.33594 27.3713 2.33594C22.3089 2.33594 18.6641 6.02735 18.6641 11.3572C18.6641 16.687 22.2705 20.2729 27.5153 20.2729C31.9217 20.2729 34.9089 18.2168 35.7841 14.5621H32.5793V14.5606ZM27.3713 5.08805C30.2833 5.08805 32.1777 6.83509 32.3105 9.48624H22.1073C22.6273 6.68058 24.4865 5.08805 27.3713 5.08805Z" fill="#EFECD6"></path><path d="M99.9425 14.5606C99.3601 16.5111 97.6113 17.556 94.9537 17.556C91.5665 17.556 89.6001 15.5703 89.3441 11.9829L103.112 11.9477V10.7284C103.111 5.67856 99.7969 2.33594 94.7345 2.33594C89.6721 2.33594 86.0273 6.02735 86.0273 11.3572C86.0273 16.687 89.6337 20.2729 94.8769 20.2729C99.2849 20.2729 102.272 18.2168 103.146 14.5621H99.9425V14.5606ZM94.7345 5.08805C97.6465 5.08805 99.5409 6.83509 99.6737 9.48624H89.4705C89.9905 6.68058 91.8497 5.08805 94.7345 5.08805Z" fill="#EFECD6"></path><path d="M119.181 14.5606C118.598 16.5111 116.85 17.556 114.192 17.556C110.805 17.556 108.838 15.5703 108.582 11.9829L122.35 11.9477V10.7284C122.349 5.67856 119.035 2.33594 113.973 2.33594C108.91 2.33594 105.266 6.02735 105.266 11.3572C105.266 16.687 108.872 20.2729 114.115 20.2729C118.523 20.2729 121.51 18.2168 122.384 14.5621H119.179L119.181 14.5606ZM113.973 5.08805C116.885 5.08805 118.779 6.83509 118.912 9.48624H108.709C109.229 6.68058 111.088 5.08805 113.973 5.08805Z" fill="#EFECD6"></path><path d="M9.3792 2.33006C7.7216 2.33006 6.1968 2.76758 4.8464 3.62886L4.7088 3.71606L4.6192 3.58297C4.3664 3.2097 4.1248 2.86243 3.8896 2.52587L3.8816 2.51364C3.6 2.1113 3.352 1.75485 3.1408 1.43359L0.6304 2.90374C0.8656 3.2663 1.136 3.65181 1.4192 4.06027L1.4304 4.07709C1.7568 4.54368 2.1264 5.073 2.5056 5.65432L2.5648 5.74458L2.5008 5.83025C2.3728 6.00159 2.248 6.17904 2.128 6.35803C0.776 8.40338 0 11.1081 0 13.7745C0 17.7367 1.688 20.2976 4.2976 20.2976C5.48 20.2976 6.5504 19.7851 7.3104 18.855C8.6912 17.1692 8.9936 14.3023 8.1392 10.9857C7.7248 9.38092 7.112 7.83735 6.2672 6.26777L6.2016 6.14845L6.3152 6.0689C7.2048 5.45392 8.2352 5.14184 9.3776 5.14184C10.3616 5.14184 13.5744 5.66503 13.5744 12.4038V19.8325H16.5184V12.4038C16.5184 2.81501 10.5728 2.33006 9.3808 2.33006H9.3792ZM4.992 17.1202C4.7296 17.4384 4.4928 17.4828 4.296 17.4828C3.7296 17.4828 2.9424 16.1947 2.9424 13.7745C2.9424 12.107 3.3232 10.3829 4.0192 8.92351L4.1712 8.60072L4.3168 8.9281C4.72 9.83222 5.0448 10.7516 5.2784 11.6603C5.7776 13.594 5.8816 16.034 4.9904 17.1202H4.992Z" fill="#EFECD6"></path><path d="M133.911 2.33006C132.255 2.33006 130.729 2.76758 129.378 3.62886L129.241 3.71606L129.151 3.58297C128.898 3.2097 128.657 2.86243 128.422 2.52587L128.414 2.51364C128.132 2.1113 127.884 1.75485 127.673 1.43359L125.164 2.90374C125.399 3.2663 125.67 3.65181 125.953 4.06027L125.964 4.07709C126.29 4.54368 126.66 5.073 127.039 5.65432L127.098 5.74458L127.036 5.83025C126.908 6.00159 126.783 6.17904 126.663 6.35803C125.311 8.40491 124.535 11.1081 124.535 13.7745C124.535 17.7367 126.223 20.2976 128.833 20.2976C130.014 20.2976 131.084 19.7851 131.846 18.855C133.225 17.1692 133.529 14.3023 132.674 10.9857C132.26 9.38092 131.647 7.83735 130.802 6.26777L130.737 6.14845L130.85 6.0689C131.74 5.45392 132.77 5.14184 133.913 5.14184C134.897 5.14184 138.11 5.66503 138.11 12.4038V19.8325H141.054V12.4038C141.054 2.81501 135.108 2.33006 133.916 2.33006H133.911ZM129.526 17.1202C129.263 17.4384 129.026 17.4828 128.83 17.4828C128.262 17.4828 127.476 16.1947 127.476 13.7745C127.476 12.107 127.857 10.3829 128.553 8.92351L128.705 8.60072L128.85 8.9281C129.254 9.83222 129.578 10.7516 129.812 11.6603C130.311 13.594 130.415 16.034 129.524 17.1202H129.526Z" fill="#EFECD6"></path></svg> 