<?xml version="1.0" encoding="UTF-8"?> <svg xmlns="http://www.w3.org/2000/svg" width="40" height="40" viewBox="0 0 40 40" fill="none"><path d="M17.6396 16.48C17.5522 15.9363 17.6434 16.2106 17.6396 15.5546C17.6325 14.3191 18.8757 12.0609 19.5688 10.8987C19.7778 10.5484 20.2695 10.546 20.4817 10.8943C21.1923 12.0611 22.4776 14.3409 22.4846 15.5796C22.4877 16.1342 22.5369 15.8182 22.4846 16.2868M15.7776 19.7554C15.0998 18.9375 14.6721 16.9584 14.4675 15.7732C14.3943 15.3495 14.8079 15.0293 15.2003 15.2049C16.2917 15.6934 18.095 16.5831 18.7712 17.3993C19.0628 17.7513 19.7648 19.9714 19.8988 21.5494C19.9215 21.8165 19.7052 22.0025 19.4558 21.904C18.3807 21.4793 16.0978 20.1418 15.7776 19.7554ZM24.0328 19.7554C24.7105 18.9375 25.1383 16.9584 25.3429 15.7732C25.4161 15.3495 25.0025 15.0293 24.61 15.2049C23.5186 15.6934 21.7153 16.5831 21.0391 17.3993C20.7475 17.7513 20.0455 19.9714 19.9115 21.5494C19.8889 21.8165 20.1052 22.0025 20.3545 21.904C21.4297 21.4793 23.7126 20.1418 24.0328 19.7554Z" stroke="#2C4143" stroke-width="1.2" stroke-linecap="round"></path><path d="M14.4436 20.3104C14.6379 21.4737 15.0723 23.5797 15.777 24.4301C16.0972 24.8166 18.3801 26.154 19.4552 26.5788C19.7046 26.6773 19.9209 26.4913 19.8982 26.2241C19.7642 24.6462 19.0622 22.426 18.7706 22.0741C18.0674 21.2253 16.145 20.2969 15.0723 19.8231C14.7364 19.6747 14.3831 19.9482 14.4436 20.3104Z" stroke="#2C4143" stroke-width="1.2" stroke-linecap="round"></path><path d="M25.365 20.3104C25.1707 21.4737 24.7363 23.5797 24.0316 24.4301C23.7114 24.8166 21.4285 26.154 20.3534 26.5788C20.104 26.6773 19.8877 26.4913 19.9104 26.2241C20.0444 24.6462 20.7464 22.426 21.038 22.0741C21.7412 21.2253 23.6636 20.2969 24.7363 19.8231C25.0722 19.6747 25.4255 19.9482 25.365 20.3104Z" stroke="#2C4143" stroke-width="1.2" stroke-linecap="round"></path><path d="M19.9043 29.0328L19.9043 19.037" stroke="#2C4143" stroke-width="1.2" stroke-linecap="round"></path><circle cx="20" cy="20" r="15" stroke="#2C4143" stroke-width="1.2" stroke-linecap="round"></circle><path d="M9.57617 9.21228L12.7665 12.4029M30.817 30.455L27.2732 26.9109" stroke="#2C4143" stroke-width="1.2" stroke-linecap="round"></path></svg> 