<?xml version="1.0" encoding="UTF-8"?> <svg xmlns="http://www.w3.org/2000/svg" width="40" height="40" viewBox="0 0 40 40" fill="none"><circle cx="20" cy="20" r="20" fill="#2C4143"></circle><path d="M26.7877 19.8649L26.7302 20.2101L26.7877 19.8649ZM27.2584 20.6289L27.6064 20.6659L27.2584 20.6289ZM27.2741 20.4056L26.9247 20.4264L27.2741 20.4056ZM25.8727 19.3635L26.2185 19.3096L25.8727 19.3635ZM26.3591 19.85L26.3052 20.1958L26.3591 19.85ZM26.4433 16.6236L26.4468 16.9735L26.4433 16.6236ZM25.8658 17.2012L25.5158 17.1977L25.8658 17.2012ZM27.0181 15.8505L26.6852 15.9586L27.0181 15.8505ZM27.0232 15.8666L26.6891 15.9708L27.0232 15.8666ZM26.4732 16.6235L26.4691 16.2735L26.4732 16.6235ZM26.4059 13.9651L26.073 14.0732L26.4059 13.9651ZM26.0631 13.2701L25.8573 13.5533L26.0631 13.2701ZM13.5265 16.6235L13.5307 16.2735L13.5265 16.6235ZM12.9817 15.8506L12.6488 15.7426L12.9817 15.8506ZM12.9765 15.8668L13.3107 15.9708L12.9765 15.8668ZM14.1342 17.2011L13.7843 17.2046L14.1342 17.2011ZM13.5567 16.6236L13.5533 16.9735L13.5567 16.6236ZM13.6409 19.85L13.6948 20.1958L13.6409 19.85ZM14.1273 19.3635L13.7815 19.3096L14.1273 19.3635ZM12.7259 20.4056L12.3765 20.3848L12.7259 20.4056ZM13.2123 19.8649L13.2698 20.2101L13.2123 19.8649ZM13.93 30.4085L14.1641 30.1483L13.93 30.4085ZM26.3153 29.5146L25.9673 29.4776L26.3153 29.5146ZM26.07 30.4085L26.3041 30.6687L26.07 30.4085ZM25.1552 30.5581V30.2081H14.8448V30.5581V30.9081H25.1552V30.5581ZM13.6847 29.5146L14.0327 29.4776L13.0896 20.592L12.7416 20.6289L12.3936 20.6659L13.3366 29.5515L13.6847 29.5146ZM14.1343 19.1586H14.4843V17.2142H14.1343H13.7843V19.1586H14.1343ZM12.9817 15.8506L13.3146 15.9586L13.9262 14.0734L13.5933 13.9654L13.2604 13.8573L12.6488 15.7426L12.9817 15.8506ZM14.703 13.1587V13.5087H25.2962V13.1587V12.8087H14.703V13.1587ZM26.4059 13.9651L26.073 14.0732L26.6852 15.9586L27.0181 15.8505L27.351 15.7425L26.7388 13.857L26.4059 13.9651ZM25.8657 17.2141H25.5157V19.1586H25.8657H26.2157V17.2141H25.8657ZM27.2584 20.6289L26.9104 20.592L25.9673 29.4776L26.3153 29.5146L26.6634 29.5515L27.6064 20.6659L27.2584 20.6289ZM26.564 19.8569V20.2069C26.696 20.2069 26.7184 20.2082 26.7302 20.2101L26.7877 19.8649L26.8453 19.5196C26.7618 19.5057 26.6668 19.5069 26.564 19.5069V19.8569ZM27.2584 20.6289L27.6064 20.6659C27.6173 20.5636 27.6285 20.4693 27.6235 20.3848L27.2741 20.4056L26.9247 20.4264C26.9254 20.4383 26.9243 20.4607 26.9104 20.592L27.2584 20.6289ZM26.7877 19.8649L26.7302 20.2101C26.8375 20.228 26.9183 20.3178 26.9247 20.4264L27.2741 20.4056L27.6235 20.3848C27.5976 19.9502 27.2747 19.5912 26.8453 19.5196L26.7877 19.8649ZM25.8657 19.1586H25.5157C25.5157 19.2523 25.5147 19.3392 25.5269 19.4175L25.8727 19.3635L26.2185 19.3096C26.2168 19.2985 26.2157 19.2786 26.2157 19.1586H25.8657ZM26.564 19.8569V19.5069C26.444 19.5069 26.4242 19.5059 26.4131 19.5041L26.3591 19.85L26.3052 20.1958C26.3834 20.208 26.4704 20.2069 26.564 20.2069V19.8569ZM25.8727 19.3635L25.5269 19.4175C25.5895 19.8186 25.9041 20.1332 26.3052 20.1958L26.3591 19.85L26.4131 19.5041C26.3128 19.4885 26.2342 19.4098 26.2185 19.3096L25.8727 19.3635ZM26.4563 16.6235V16.2735C26.4504 16.2735 26.4449 16.2735 26.4399 16.2736L26.4433 16.6236L26.4468 16.9735C26.4475 16.9735 26.4487 16.9735 26.4563 16.9735V16.6235ZM25.8657 17.2141H26.2157C26.2157 17.2066 26.2157 17.2053 26.2157 17.2046L25.8658 17.2012L25.5158 17.1977C25.5157 17.2027 25.5157 17.2082 25.5157 17.2141H25.8657ZM26.4433 16.6236L26.4399 16.2736C25.9316 16.2786 25.5207 16.6894 25.5158 17.1977L25.8658 17.2012L26.2157 17.2046C26.217 17.0775 26.3197 16.9748 26.4468 16.9735L26.4433 16.6236ZM27.0181 15.8505L26.6852 15.9586C26.6866 15.963 26.6875 15.9658 26.6882 15.968C26.6885 15.969 26.6888 15.9697 26.6889 15.9702C26.689 15.9706 26.6891 15.9708 26.6891 15.9708L27.0232 15.8666L27.3574 15.7624C27.3556 15.7567 27.3534 15.7499 27.351 15.7425L27.0181 15.8505ZM26.4563 16.6235V16.9735C26.4642 16.9735 26.4713 16.9735 26.4773 16.9735L26.4732 16.6235L26.4691 16.2735C26.4691 16.2735 26.4689 16.2735 26.4685 16.2735C26.468 16.2735 26.4672 16.2735 26.4662 16.2735C26.4639 16.2735 26.4609 16.2735 26.4563 16.2735V16.6235ZM27.0232 15.8666L26.6891 15.9708C26.7356 16.1199 26.6253 16.2717 26.4691 16.2735L26.4732 16.6235L26.4773 16.9735C27.1021 16.9661 27.5433 16.3589 27.3574 15.7624L27.0232 15.8666ZM25.2962 13.1587V13.5087C25.5088 13.5087 25.6387 13.5092 25.7356 13.5203C25.8235 13.5304 25.8472 13.5459 25.8573 13.5533L26.0631 13.2701L26.2688 12.987C26.1256 12.8829 25.9703 12.8427 25.8154 12.8249C25.6694 12.8082 25.4926 12.8087 25.2962 12.8087V13.1587ZM26.4059 13.9651L26.7388 13.857C26.6781 13.6702 26.624 13.5018 26.563 13.3682C26.4983 13.2263 26.412 13.0911 26.2688 12.987L26.0631 13.2701L25.8573 13.5533C25.8674 13.5606 25.8895 13.5784 25.9262 13.6588C25.9667 13.7476 26.0073 13.8709 26.073 14.0732L26.4059 13.9651ZM13.5933 13.9654L13.9262 14.0734C13.9918 13.8711 14.0324 13.7476 14.0729 13.6589C14.1096 13.5784 14.1317 13.5607 14.1418 13.5533L13.936 13.2702L13.7302 12.9871C13.587 13.0912 13.5008 13.2265 13.436 13.3684C13.3751 13.5021 13.321 13.6705 13.2604 13.8573L13.5933 13.9654ZM14.703 13.1587V12.8087C14.5066 12.8087 14.3297 12.8082 14.1837 12.8249C14.0288 12.8427 13.8735 12.8829 13.7302 12.9871L13.936 13.2702L14.1418 13.5533C14.1519 13.5459 14.1756 13.5304 14.2635 13.5203C14.3604 13.5092 14.4904 13.5087 14.703 13.5087V13.1587ZM13.5436 16.6235V16.2735C13.5389 16.2735 13.5359 16.2735 13.5336 16.2735C13.5325 16.2735 13.5318 16.2735 13.5313 16.2735C13.5308 16.2735 13.5306 16.2735 13.5307 16.2735L13.5265 16.6235L13.5224 16.9735C13.5285 16.9735 13.5357 16.9735 13.5436 16.9735V16.6235ZM12.9817 15.8506L12.6488 15.7426C12.6463 15.7501 12.6441 15.7569 12.6423 15.7628L12.9765 15.8668L13.3107 15.9708C13.3107 15.9709 13.3107 15.9707 13.3109 15.9703C13.311 15.9698 13.3112 15.9691 13.3116 15.968C13.3123 15.9659 13.3132 15.963 13.3146 15.9586L12.9817 15.8506ZM13.5265 16.6235L13.5307 16.2735C13.3745 16.2717 13.2643 16.1199 13.3107 15.9708L12.9765 15.8668L12.6423 15.7628C12.4566 16.3591 12.8978 16.966 13.5224 16.9735L13.5265 16.6235ZM14.1343 17.2142H14.4843C14.4843 17.2082 14.4843 17.2027 14.4842 17.1976L14.1342 17.2011L13.7843 17.2046C13.7843 17.2053 13.7843 17.2066 13.7843 17.2142H14.1343ZM13.5436 16.6235V16.9735C13.5513 16.9735 13.5525 16.9735 13.5533 16.9735L13.5567 16.6236L13.5602 16.2736C13.5551 16.2735 13.5496 16.2735 13.5436 16.2735V16.6235ZM14.1342 17.2011L14.4842 17.1976C14.4792 16.6894 14.0684 16.2786 13.5602 16.2736L13.5567 16.6236L13.5533 16.9735C13.6803 16.9748 13.783 17.0775 13.7843 17.2046L14.1342 17.2011ZM13.436 19.8569V20.2069C13.5296 20.2069 13.6166 20.208 13.6948 20.1958L13.6409 19.85L13.5869 19.5041C13.5758 19.5059 13.556 19.5069 13.436 19.5069V19.8569ZM14.1343 19.1586H13.7843C13.7843 19.2786 13.7832 19.2985 13.7815 19.3096L14.1273 19.3635L14.4731 19.4175C14.4853 19.3392 14.4843 19.2523 14.4843 19.1586H14.1343ZM13.6409 19.85L13.6948 20.1958C14.0959 20.1332 14.4105 19.8186 14.4731 19.4175L14.1273 19.3635L13.7815 19.3096C13.7658 19.4098 13.6872 19.4885 13.5869 19.5041L13.6409 19.85ZM12.7416 20.6289L13.0896 20.592C13.0757 20.4607 13.0746 20.4383 13.0753 20.4264L12.7259 20.4056L12.3765 20.3848C12.3715 20.4693 12.3827 20.5636 12.3936 20.6659L12.7416 20.6289ZM13.436 19.8569V19.5069C13.3332 19.5069 13.2382 19.5057 13.1547 19.5196L13.2123 19.8649L13.2698 20.2101C13.2816 20.2082 13.304 20.2069 13.436 20.2069V19.8569ZM12.7259 20.4056L13.0753 20.4264C13.0817 20.3178 13.1625 20.228 13.2698 20.2101L13.2123 19.8649L13.1547 19.5196C12.7253 19.5912 12.4024 19.9502 12.3765 20.3848L12.7259 20.4056ZM14.8448 30.5581V30.2081C14.586 30.2081 14.4254 30.2074 14.3073 30.1923C14.1991 30.1784 14.1741 30.1572 14.1641 30.1483L13.93 30.4085L13.6959 30.6687C13.8523 30.8093 14.0352 30.863 14.2181 30.8865C14.3911 30.9088 14.6046 30.9081 14.8448 30.9081V30.5581ZM13.6847 29.5146L13.3366 29.5515C13.362 29.7903 13.3838 30.0028 13.4242 30.1725C13.4669 30.3519 13.5396 30.528 13.6959 30.6687L13.93 30.4085L14.1641 30.1483C14.1541 30.1393 14.1304 30.1166 14.1052 30.0105C14.0776 29.8947 14.06 29.735 14.0327 29.4776L13.6847 29.5146ZM25.1552 30.5581V30.9081C25.3954 30.9081 25.6089 30.9088 25.7819 30.8865C25.9648 30.863 26.1477 30.8093 26.3041 30.6687L26.07 30.4085L25.8359 30.1483C25.8259 30.1572 25.8009 30.1784 25.6927 30.1923C25.5746 30.2074 25.414 30.2081 25.1552 30.2081V30.5581ZM26.3153 29.5146L25.9673 29.4776C25.94 29.735 25.9224 29.8947 25.8948 30.0105C25.8696 30.1166 25.8459 30.1393 25.8359 30.1483L26.07 30.4085L26.3041 30.6687C26.4604 30.528 26.5331 30.3519 26.5758 30.1725C26.6162 30.0028 26.638 29.7903 26.6634 29.5515L26.3153 29.5146Z" fill="#EFECD6"></path><path d="M21.0199 11.3025V9.44287H18.9805V11.3025" stroke="#EFECD6" stroke-width="0.7" stroke-linecap="round"></path><path d="M18.4868 9.44287H21.5133" stroke="#EFECD6" stroke-width="0.7" stroke-linecap="round"></path><path d="M24.7063 13.0976V12.4692C24.7063 11.9192 24.7063 11.6442 24.5354 11.4733C24.3646 11.3025 24.0896 11.3025 23.5396 11.3025H16.4596C15.9097 11.3025 15.6347 11.3025 15.4638 11.4733C15.293 11.6442 15.293 11.9192 15.293 12.4692V13.0976" stroke="#EFECD6" stroke-width="0.7" stroke-linecap="round"></path><path d="M14.2558 18.9702C15.9227 19.2165 18.4413 19.4992 20.7625 18.2821C22.8975 17.1626 25.3086 16.8888 25.8436 17.0337" stroke="#EFECD6" stroke-width="0.7" stroke-linecap="round"></path><path d="M17.5928 21.3652C18.7954 23.0425 20.7732 27.9931 18.471 28.0347C17.9442 28.0347 17.2083 27.204 17.3792 25.4951C17.5928 23.359 18.8507 22.0298 20.4172 22.0061C21.3435 22.0061 22.9697 22.5282 22.59 28.0347" stroke="#EFECD6" stroke-width="0.7" stroke-linecap="round"></path></svg> 