<?xml version="1.0" encoding="UTF-8"?> <svg xmlns="http://www.w3.org/2000/svg" width="40" height="40" viewBox="0 0 40 40" fill="none"><circle cx="20" cy="20" r="20" fill="#2C4143"></circle><path d="M27.915 10.1635H28.315V10.1634L27.915 10.1635ZM27.915 11.2562L28.315 11.2563V11.2562H27.915ZM27.1904 15.7084L27.1905 15.3084H27.1904V15.7084ZM29.8564 18.3744H30.2564V18.3743L29.8564 18.3744ZM28.5234 32.3529V32.7529H28.5234L28.5234 32.3529ZM10.1436 18.3744L9.74355 18.3743V18.3744H10.1436ZM12.0859 11.2562H11.6859L11.6859 11.2563L12.0859 11.2562ZM12.0859 10.1635L11.6859 10.1634V10.1635H12.0859ZM13.4189 8.83044V8.43044H13.4188L13.4189 8.83044ZM26.3877 15.5912L26.1048 15.8741L26.3877 15.5912ZM13.6123 15.5912L13.8952 15.8741L13.6123 15.5912ZM26.5811 8.83044V9.23044C27.0967 9.23044 27.5149 9.64843 27.515 10.1635L27.915 10.1635L28.315 10.1634C28.3148 9.20597 27.538 8.43044 26.5811 8.43044V8.83044ZM27.915 10.1635H27.515V11.2562H27.915H28.315V10.1635H27.915ZM27.915 11.2562L27.515 11.2562C27.515 11.7713 27.0968 12.1892 26.5811 12.1892V12.5892V12.9892C27.538 12.9892 28.3149 12.2138 28.315 11.2563L27.915 11.2562ZM26.2705 12.8998H25.8705V14.9084H26.2705H26.6705V12.8998H26.2705ZM27.0705 15.7084V16.1084H27.1904V15.7084V15.3084H27.0705V15.7084ZM27.1904 15.7084L27.1904 16.1084C28.442 16.1085 29.4563 17.1228 29.4564 18.3744L29.8564 18.3744L30.2564 18.3743C30.2563 16.6809 28.8839 15.3086 27.1905 15.3084L27.1904 15.7084ZM29.8564 18.3744H29.4564V31.0189H29.8564H30.2564V18.3744H29.8564ZM29.8564 31.0189H29.4564C29.4564 31.5348 29.0385 31.9529 28.5234 31.9529L28.5234 32.3529L28.5234 32.7529C29.4811 32.7529 30.2564 31.9758 30.2564 31.0189H29.8564ZM28.5234 32.3529V31.9529H11.4775V32.3529V32.7529H28.5234V32.3529ZM11.4775 32.3529V31.9529C10.9621 31.9529 10.5436 31.5344 10.5436 31.0189H10.1436H9.74355C9.74355 31.9762 10.5202 32.7529 11.4775 32.7529V32.3529ZM10.1436 31.0189H10.5436V18.3744H10.1436H9.74355V31.0189H10.1436ZM10.1436 18.3744L10.5436 18.3744C10.5437 17.1228 11.5586 16.1084 12.8105 16.1084V15.7084V15.3084C11.1171 15.3084 9.74373 16.6807 9.74355 18.3743L10.1436 18.3744ZM12.8105 15.7084V16.1084H12.9295V15.7084V15.3084H12.8105V15.7084ZM13.7295 14.9084H14.1295V12.8998H13.7295H13.3295V14.9084H13.7295ZM13.4189 12.5892L13.419 12.1892C12.9036 12.1891 12.486 11.7715 12.4859 11.2562L12.0859 11.2562L11.6859 11.2563C11.686 12.2134 12.4619 12.989 13.4188 12.9892L13.4189 12.5892ZM12.0859 11.2562H12.4859V10.1635H12.0859H11.6859V11.2562H12.0859ZM12.0859 10.1635L12.4859 10.1635C12.486 9.64826 12.9037 9.23057 13.419 9.23044L13.4189 8.83044L13.4188 8.43044C12.4619 8.43067 11.6861 9.20637 11.6859 10.1634L12.0859 10.1635ZM13.4189 8.83044V9.23044H26.5811V8.83044V8.43044H13.4189V8.83044ZM13.7295 12.8998H14.1295C14.1295 12.5074 13.8114 12.1892 13.4189 12.1892V12.5892V12.9892C13.3695 12.9892 13.3295 12.9492 13.3295 12.8998H13.7295ZM26.2705 14.9084H25.8705C25.8705 15.0856 25.8697 15.2588 25.8887 15.4006C25.9093 15.5539 25.9595 15.7288 26.1048 15.8741L26.3877 15.5912L26.6705 15.3084C26.6986 15.3365 26.6903 15.3586 26.6816 15.294C26.6714 15.2179 26.6705 15.1082 26.6705 14.9084H26.2705ZM27.0705 15.7084V15.3084C26.8706 15.3084 26.761 15.3075 26.6849 15.2973C26.6203 15.2886 26.6424 15.2802 26.6705 15.3084L26.3877 15.5912L26.1048 15.8741C26.2501 16.0193 26.425 16.0696 26.5783 16.0902C26.7201 16.1092 26.8933 16.1084 27.0705 16.1084V15.7084ZM12.9295 15.7084V16.1084C13.1067 16.1084 13.2799 16.1092 13.4217 16.0902C13.575 16.0696 13.7499 16.0193 13.8952 15.8741L13.6123 15.5912L13.3295 15.3084C13.3576 15.2802 13.3797 15.2886 13.3151 15.2973C13.239 15.3075 13.1294 15.3084 12.9295 15.3084V15.7084ZM13.7295 14.9084H13.3295C13.3295 15.1082 13.3286 15.2179 13.3184 15.294C13.3097 15.3586 13.3014 15.3365 13.3295 15.3084L13.6123 15.5912L13.8952 15.8741C14.0405 15.7288 14.0907 15.5539 14.1113 15.4006C14.1303 15.2588 14.1295 15.0856 14.1295 14.9084H13.7295ZM26.5811 12.5892V12.1892C26.1886 12.1892 25.8705 12.5074 25.8705 12.8998H26.2705H26.6705C26.6705 12.9492 26.6305 12.9892 26.5811 12.9892V12.5892Z" fill="#EFECD6"></path><path d="M17.117 29.2495L18.5108 29.0751C21.0927 28.7519 23.0645 26.6129 23.1769 24.0133L23.219 23.0396C23.2581 22.1336 22.401 21.4537 21.5277 21.698L20.6746 21.9366C17.9722 22.6925 16.3179 25.4132 16.8901 28.1604L17.117 29.2495ZM17.117 29.2495L19.0389 26.4257" stroke="#EFECD6" stroke-width="0.8" stroke-linecap="round"></path><path d="M10.2329 19.3334H29.8755" stroke="#EFECD6" stroke-width="0.8"></path></svg> 