<?xml version="1.0" encoding="UTF-8"?> <svg xmlns="http://www.w3.org/2000/svg" width="40" height="40" viewBox="0 0 40 40" fill="none"><circle cx="20" cy="20" r="20" fill="#2C4143"></circle><path d="M20.1613 26.3095C20.1714 25.2444 19.848 22.8247 18.4731 21.667" stroke="#EFECD6" stroke-width="0.8" stroke-linecap="round"></path><path d="M24.3818 28.7512L24.2457 26.9558C24.2359 26.8268 24.245 26.6971 24.2725 26.5707L25.492 20.9831C25.5153 20.8765 25.5254 20.7674 25.5221 20.6583L25.455 18.4465" stroke="#EFECD6" stroke-width="0.8" stroke-linecap="round"></path><path d="M15.8989 28.6703V26.8817C15.8989 26.5146 15.7475 26.1637 15.4805 25.9118L13.0097 23.5812C12.5939 23.1762 11.887 21.9921 12.386 20.4949C12.885 18.9977 13.2944 18.3168 13.4368 18.1636C13.6447 17.8681 14.2182 17.3429 14.8486 17.6056C15.3481 17.8137 17.5163 18.8328 19.1737 19.6172C19.821 19.9235 20.1094 20.7184 19.5569 21.1741C19.0937 21.5562 18.4429 21.8372 17.6066 21.7096C16.0569 21.4732 15.1222 20.9763 14.8486 20.7575" stroke="#EFECD6" stroke-width="0.8" stroke-linecap="round"></path><path d="M17.3128 18.6445V17.65V16.3406V15.055C17.3128 14.3186 16.7159 13.7217 15.9795 13.7217H15.9334C15.1971 13.7217 14.6001 14.3186 14.6001 15.055V16.3406V17.4553" stroke="#EFECD6" stroke-width="0.8" stroke-linecap="round"></path><path d="M17.313 18.706V17.3076V15.055C17.313 14.3186 17.9099 13.7217 18.6463 13.7217H18.6924C19.4288 13.7217 20.0257 14.3186 20.0257 15.055V17.3076V19.1005V19.997" stroke="#EFECD6" stroke-width="0.8" stroke-linecap="round"></path><rect x="20.0254" y="14.5818" width="2.71273" height="5.61371" rx="1.33333" stroke="#EFECD6" stroke-width="0.8" stroke-linecap="round"></rect><rect x="22.7383" y="15.2263" width="2.71273" height="5.45255" rx="1.33333" stroke="#EFECD6" stroke-width="0.8" stroke-linecap="round"></rect><rect x="14.5977" y="28.9724" width="11.0889" height="3.41186" rx="1.33333" stroke="#EFECD6" stroke-width="0.8" stroke-linecap="round"></rect><path d="M20.0918 8.11631V9.4707" stroke="#EFECD6" stroke-width="0.8" stroke-linecap="round"></path><path d="M11.9705 13.6639L10.8184 12.9519" stroke="#EFECD6" stroke-width="0.8" stroke-linecap="round"></path><path d="M15.7996 10.5446L15.1558 9.35303" stroke="#EFECD6" stroke-width="0.8" stroke-linecap="round"></path><path d="M28.0603 13.6639L29.2124 12.9519" stroke="#EFECD6" stroke-width="0.8" stroke-linecap="round"></path><path d="M24.2311 10.5446L24.875 9.35303" stroke="#EFECD6" stroke-width="0.8" stroke-linecap="round"></path></svg> 