<?xml version="1.0" encoding="UTF-8"?> <svg xmlns="http://www.w3.org/2000/svg" width="40" height="40" viewBox="0 0 40 40" fill="none"><path d="M12.7607 16.0321C12.7607 15.664 13.0591 15.3657 13.4271 15.3657V15.3657C16.7391 15.3657 19.424 18.0507 19.424 21.3627V21.3627C19.424 21.7307 19.1257 22.029 18.7577 22.029V22.029C15.4457 22.029 12.7607 19.3441 12.7607 16.0321V16.0321Z" stroke="#2C4143" stroke-width="1.2" stroke-linecap="round"></path><path d="M27.2393 16.0321C27.2393 15.664 26.9409 15.3657 26.5729 15.3657V15.3657C23.2609 15.3657 20.576 18.0507 20.576 21.3627V21.3627C20.576 21.7307 20.8743 22.029 21.2423 22.029V22.029C24.5543 22.029 27.2393 19.3441 27.2393 16.0321V16.0321Z" stroke="#2C4143" stroke-width="1.2" stroke-linecap="round"></path><path d="M19.9795 21.3008L19.9795 29.1075" stroke="#2C4143" stroke-width="1.2" stroke-linecap="round"></path><circle cx="20" cy="20" r="15" stroke="#2C4143" stroke-width="1.2" stroke-linecap="round"></circle><circle cx="20.0001" cy="13.0942" r="1.56549" stroke="#2C4143" stroke-width="1.2" stroke-linecap="round"></circle></svg> 