<?xml version="1.0" encoding="UTF-8"?> <svg xmlns="http://www.w3.org/2000/svg" width="40" height="40" viewBox="0 0 40 40" fill="none"><circle cx="20" cy="20" r="20" fill="#2C4143"></circle><circle cx="20.9894" cy="9.87455" r="2.06071" stroke="#EFECD6" stroke-width="0.8"></circle><path d="M15.3488 7.81384L12.0679 7.81384" stroke="#EFECD6" stroke-width="0.8" stroke-linecap="round"></path><path d="M15.0467 11.0498L8.95459 11.0498" stroke="#EFECD6" stroke-width="0.8" stroke-linecap="round"></path><path d="M23.3893 16.4847L24.7562 17.1771C25.1488 17.3761 25.6144 17.3684 26.0002 17.1566L28.0917 16.0086C28.5373 15.764 28.6779 15.1903 28.396 14.7673V14.7673C28.1498 14.3981 27.6647 14.2743 27.2717 14.4803L25.9711 15.1622C25.5149 15.4014 24.9617 15.3564 24.5502 15.0466L23.064 13.928C22.8597 13.7742 22.6155 13.6824 22.3604 13.6636L17.6975 13.319C17.4716 13.3023 17.2451 13.3435 17.0395 13.4386L13.6868 14.9892C13.3153 15.161 13.0433 15.494 12.949 15.8922L12.3122 18.5822C12.2026 19.045 12.4809 19.511 12.9402 19.6341V19.6341C13.4094 19.7598 13.8915 19.4813 14.0171 19.0122L14.5171 17.1448C14.6273 16.7335 14.9393 16.4066 15.3451 16.2774V16.2774C16.1682 16.0154 17.0025 16.6477 16.9727 17.511L16.865 20.6385C16.8539 20.9606 16.9598 21.2758 17.1632 21.5258L19.1879 24.0147M22.3788 32.2799L21.0915 26.5754C21.0462 26.3746 20.9551 26.1871 20.8252 26.0275L19.1879 24.0147M21.8736 15.2614L21.4724 21.0273C21.4565 21.2568 21.5001 21.4865 21.5992 21.694L23.2879 25.2334C23.355 25.374 23.3969 25.5252 23.4118 25.6802L23.9117 30.8878C23.9773 31.5717 24.5519 32.0937 25.2389 32.0937H25.3836M11.2104 28.2911L16.6511 27.8008C17.1193 27.7586 17.5307 27.4729 17.7338 27.049L19.1879 24.0147M16.369 23.5579L15.9812 24.7549C15.8416 25.1857 15.493 25.5162 15.0555 25.6326L10.6439 26.8061C10.4564 26.856 10.2776 26.9426 10.1533 27.0916C9.84479 27.4617 9.49621 28.1406 9.66804 28.9825" stroke="#EFECD6" stroke-width="0.8" stroke-linecap="round"></path></svg> 