<?xml version="1.0" encoding="UTF-8"?> <svg xmlns="http://www.w3.org/2000/svg" width="40" height="40" viewBox="0 0 40 40" fill="none"><path d="M19.5288 9.88724C19.7891 9.62702 20.2109 9.62702 20.4712 9.88724V9.88724C22.8131 12.2292 22.8131 16.0263 20.4712 18.3682V18.3682C20.2109 18.6284 19.7891 18.6284 19.5288 18.3682V18.3682C17.1869 16.0263 17.1869 12.2292 19.5288 9.88724V9.88724Z" stroke="#2C4143" stroke-width="1.2" stroke-linecap="round"></path><path d="M19.5288 21.6318C19.7891 21.3716 20.2109 21.3716 20.4712 21.6318V21.6318C22.8131 23.9738 22.8131 27.7708 20.4712 30.1128V30.1128C20.2109 30.373 19.7891 30.373 19.5288 30.1128V30.1128C17.1869 27.7708 17.1869 23.9738 19.5288 21.6318V21.6318Z" stroke="#2C4143" stroke-width="1.2" stroke-linecap="round"></path><path d="M28.5224 14.5355C28.8779 14.6308 29.0888 14.9962 28.9936 15.3516V15.3516C28.1363 18.5508 24.848 20.4493 21.6488 19.5921V19.5921C21.2933 19.4969 21.0824 19.1315 21.1776 18.776V18.776C22.0349 15.5769 25.3232 13.6783 28.5224 14.5355V14.5355Z" stroke="#2C4143" stroke-width="1.2" stroke-linecap="round"></path><path d="M18.3515 20.4079C18.707 20.5031 18.9179 20.8685 18.8227 21.2239V21.2239C17.9654 24.4231 14.6771 26.3217 11.4779 25.4644V25.4644C11.1224 25.3692 10.9115 25.0038 11.0067 24.6484V24.6484C11.864 21.4492 15.1523 19.5506 18.3515 20.4079V20.4079Z" stroke="#2C4143" stroke-width="1.2" stroke-linecap="round"></path><path d="M28.9936 24.6483C29.0888 25.0038 28.8779 25.3692 28.5224 25.4644V25.4644C25.3232 26.3216 22.0349 24.4231 21.1776 21.2239V21.2239C21.0824 20.8685 21.2933 20.5031 21.6488 20.4078V20.4078C24.848 19.5506 28.1363 21.4492 28.9936 24.6483V24.6483Z" stroke="#2C4143" stroke-width="1.2" stroke-linecap="round"></path><path d="M18.8227 18.7761C18.9179 19.1316 18.707 19.497 18.3515 19.5922V19.5922C15.1523 20.4494 11.864 18.5509 11.0067 15.3517V15.3517C10.9115 14.9962 11.1224 14.6309 11.4779 14.5356V14.5356C14.6771 13.6784 17.9654 15.5769 18.8227 18.7761V18.7761Z" stroke="#2C4143" stroke-width="1.2" stroke-linecap="round"></path><circle cx="20" cy="20" r="15" stroke="#2C4143" stroke-width="1.2" stroke-linecap="round"></circle></svg> 