<?xml version="1.0" encoding="UTF-8"?> <svg xmlns="http://www.w3.org/2000/svg" width="40" height="40" viewBox="0 0 40 40" fill="none"><path d="M20.5967 13.0996L20.597 12.4996H20.5967V13.0996ZM21.5498 14.0527L22.1498 14.0531V14.0527H21.5498ZM24.8066 24.1982L25.3386 23.9207L25.3386 23.9207L24.8066 24.1982ZM23.8457 25.7842V26.3842H23.846L23.8457 25.7842ZM15.1729 25.7842L15.1728 26.3842H15.1729V25.7842ZM14.2119 24.1982L14.7439 24.4758L14.7439 24.4758L14.2119 24.1982ZM17.4697 14.0527H16.8697L16.8697 14.0531L17.4697 14.0527ZM18.4219 13.0996V12.4996L18.4217 12.4996L18.4219 13.0996ZM17.7306 14.7068L18.1662 14.2942L17.7306 14.7068ZM21.2753 14.7195L21.7025 15.1409L21.2753 14.7195ZM20.5967 13.0996L20.5964 13.6996C20.7916 13.6997 20.9498 13.8583 20.9498 14.0527H21.5498H22.1498C22.1498 13.195 21.4539 12.5 20.597 12.4996L20.5967 13.0996ZM21.5498 14.0527L20.9498 14.0524C20.9498 14.1474 20.9122 14.2333 20.8482 14.2982L21.2753 14.7195L21.7025 15.1409C21.9772 14.8624 22.1496 14.4782 22.1498 14.0531L21.5498 14.0527ZM21.2061 14.8896H20.6061V17.0526H21.2061H21.8061V14.8896H21.2061ZM21.3195 17.5152L20.7876 17.7928L24.2747 24.4758L24.8066 24.1982L25.3386 23.9207L21.8514 17.2377L21.3195 17.5152ZM24.8066 24.1982L24.2747 24.4758C24.4427 24.7979 24.2088 25.184 23.8454 25.1842L23.8457 25.7842L23.846 26.3842C25.11 26.3836 25.9235 25.0417 25.3386 23.9207L24.8066 24.1982ZM23.8457 25.7842V25.1842H15.1729V25.7842V26.3842H23.8457V25.7842ZM15.1729 25.7842L15.1729 25.1842C14.8098 25.1842 14.5756 24.7983 14.7439 24.4758L14.2119 24.1982L13.68 23.9207C13.0952 25.0415 13.9079 26.3842 15.1728 26.3842L15.1729 25.7842ZM14.2119 24.1982L14.7439 24.4758L18.2232 17.8064L17.6913 17.5289L17.1593 17.2514L13.68 23.9207L14.2119 24.1982ZM17.8047 17.0664H18.4047V14.8896H17.8047H17.2047V17.0664H17.8047ZM17.7306 14.7068L18.1662 14.2942C18.1058 14.2304 18.0698 14.1462 18.0697 14.0524L17.4697 14.0527L16.8697 14.0531C16.87 14.4663 17.0324 14.8422 17.295 15.1194L17.7306 14.7068ZM17.4697 14.0527H18.0697C18.0697 13.8574 18.2278 13.6997 18.4221 13.6996L18.4219 13.0996L18.4217 12.4996C17.5638 12.4999 16.8697 13.1958 16.8697 14.0527H17.4697ZM18.4219 13.0996V13.6996H20.5967V13.0996V12.4996H18.4219V13.0996ZM17.8047 14.8896H18.4047C18.4047 14.661 18.3135 14.4497 18.1662 14.2942L17.7306 14.7068L17.295 15.1194C17.2412 15.0626 17.2047 14.9824 17.2047 14.8896H17.8047ZM17.6913 17.5289L18.2232 17.8064C18.3424 17.5779 18.4047 17.3241 18.4047 17.0664H17.8047H17.2047C17.2047 17.1308 17.1891 17.1943 17.1593 17.2514L17.6913 17.5289ZM21.2061 17.0526H20.6061C20.6061 17.3104 20.6683 17.5643 20.7876 17.7928L21.3195 17.5152L21.8514 17.2377C21.8216 17.1806 21.8061 17.1171 21.8061 17.0526H21.2061ZM21.2753 14.7195L20.8482 14.2982C20.6905 14.458 20.6061 14.6715 20.6061 14.8896H21.2061H21.8061C21.8061 14.9805 21.7708 15.0717 21.7025 15.1409L21.2753 14.7195Z" fill="#2C4143"></path><circle cx="20" cy="20" r="15" stroke="#2C4143" stroke-width="1.2" stroke-linecap="round"></circle><path d="M9.5752 9.21225L12.7655 12.4029M30.8161 30.455L27.2722 26.9108" stroke="#2C4143" stroke-width="1.2" stroke-linecap="round"></path><path d="M16.0261 21.0208C16.7657 21.2392 18.2569 21.9969 19.6083 21.0208C20.5303 20.3548 21.5634 19.4075 22.3377 19.4075" stroke="#2C4143" stroke-width="1.2" stroke-linecap="round"></path></svg> 